<?xml version="1.0" encoding="UTF-8" standalone="no"?>
<!-- Created with Inkscape (http://www.inkscape.org/) -->

<svg
   xmlns:dc="http://purl.org/dc/elements/1.1/"
   xmlns:cc="http://creativecommons.org/ns#"
   xmlns:rdf="http://www.w3.org/1999/02/22-rdf-syntax-ns#"
   xmlns:svg="http://www.w3.org/2000/svg"
   xmlns="http://www.w3.org/2000/svg"
   xmlns:sodipodi="http://sodipodi.sourceforge.net/DTD/sodipodi-0.dtd"
   xmlns:inkscape="http://www.inkscape.org/namespaces/inkscape"
   version="1.1"
   id="svg815"
   width="320"
   height="320"
   viewBox="0 0 320 320"
   sodipodi:docname="dilbert.svg"
   inkscape:version="0.92.4 (5da689c313, 2019-01-14)"
   inkscape:export-filename="C:\Users\Sam\Documents\projects\github\dilbert-comic\dilbert.png"
   inkscape:export-xdpi="12.029615"
   inkscape:export-ydpi="12.029615">
  <metadata
     id="metadata821">
    <rdf:RDF>
      <cc:Work
         rdf:about="">
        <dc:format>image/svg+xml</dc:format>
        <dc:type
           rdf:resource="http://purl.org/dc/dcmitype/StillImage" />
        <dc:title></dc:title>
      </cc:Work>
    </rdf:RDF>
  </metadata>
  <defs
     id="defs819" />
  <sodipodi:namedview
     pagecolor="#ffffff"
     bordercolor="#666666"
     borderopacity="1"
     objecttolerance="10"
     gridtolerance="10"
     guidetolerance="10"
     inkscape:pageopacity="0"
     inkscape:pageshadow="2"
     inkscape:window-width="2560"
     inkscape:window-height="1017"
     id="namedview817"
     showgrid="false"
     showborder="false"
     inkscape:zoom="1.328125"
     inkscape:cx="-433.01543"
     inkscape:cy="-138.95584"
     inkscape:window-x="-8"
     inkscape:window-y="-8"
     inkscape:window-maximized="1"
     inkscape:current-layer="svg815" />
  <path
     style="fill:#000000;stroke-width:0.82072037"
     d="m -627.17082,613.41367 c 0,-0.84489 9.91708,-25.27394 12.59268,-31.01978 2.99211,-6.42554 9.67043,-15.84531 19.1176,-26.96519 l 6.04286,-7.11281 0.004,-6.01862 c 0.007,-8.13911 1.1476,-12.02012 3.72546,-12.66715 1.10831,-0.27789 2.01657,-0.92702 2.01848,-1.44262 0.001,-0.51513 1.29297,-13.67858 2.86901,-29.25187 1.57606,-15.57309 2.86711,-28.73602 2.86905,-29.25077 0.003,-0.66772 -1.15396,-0.59612 -4.02878,0.24548 -3.52606,1.0338 -4.39499,1.03027 -6.92162,-0.0239 -4.18045,-1.74664 -5.74462,-5.28804 -5.66536,-12.82659 0.15006,-14.27446 8.20258,-23.60872 16.70697,-19.3662 1.45249,0.72514 2.77916,1.17916 2.94813,1.01029 0.32577,-0.32509 5.96713,-52.30307 5.98014,-55.09839 0.007,-1.5136 -0.55127,-1.64483 -7.17152,-1.68482 -10.42363,-0.0587 -14.62273,-2.76591 -15.50337,-9.97919 -0.83443,-6.83424 6.29731,-12.53206 16.50584,-13.18719 7.23168,-0.46332 11.0316,0.65714 15.30061,4.5137 l 3.16006,2.85498 2.16512,-2.57322 c 3.02281,-3.59245 6.21592,-5.03012 11.30683,-5.09088 4.76303,-0.0587 8.06465,1.28136 11.05208,4.47974 l 1.92314,2.0589 3.68368,-2.59644 c 3.32339,-2.34262 4.27092,-2.59654 9.68773,-2.59654 5.58463,0 6.24348,0.19257 9.43123,2.75412 l 3.42716,2.75418 1.89365,-1.77892 c 2.66134,-2.50025 8.96638,-4.24065 13.01634,-3.59305 2.38843,0.38276 4.27879,1.48357 6.69976,3.9046 l 3.37253,3.37251 4.0042,-2.47566 c 3.40006,-2.10209 4.81877,-2.47394 9.40323,-2.46445 8.93298,0.0143 14.51728,3.92147 15.35078,10.72921 0.50872,4.155 -1.64704,8.37077 -5.38428,10.52941 -2.19417,1.2674 -4.33176,1.62838 -9.64346,1.62838 h -6.82443 l 8.2e-4,2.5031 c 10e-4,4.78101 3.32674,54.11656 3.67053,54.46033 0.19014,0.19018 1.33834,-0.4352 2.55149,-1.38919 1.33729,-1.05259 3.39417,-1.73502 5.22435,-1.73502 6.21316,0 9.8915,7.23288 9.8915,19.45001 0,11.45298 -3.61678,15.87257 -12.04415,14.71741 l -3.79348,-0.51979 0.4778,6.77193 c 0.26279,3.72458 1.13405,17.6055 1.93615,30.84632 l 1.45835,24.07423 2.25123,1.16406 c 2.48651,1.28582 3.95687,5.18312 3.9645,10.50838 0.004,2.63702 0.77174,4.13407 4.42069,8.6175 11.4791,14.10434 21.79086,32.88353 27.1943,49.52468 3.30148,10.16761 3.25004,9.86078 1.59449,9.51353 -0.79798,-0.16778 -2.3276,-3.44834 -4.14124,-8.8828 -5.54053,-16.60213 -15.96856,-35.6075 -26.39765,-48.11057 l -4.18958,-5.02277 -9.7024,4.97477 c -5.33631,2.73606 -14.50361,7.03783 -20.37177,9.55943 -13.26817,5.70145 -15.21861,7.38798 -15.91359,13.76053 -1.25245,11.48421 1.89776,21.94562 8.63803,28.68592 4.1705,4.17044 6.1916,4.63199 5.6149,1.28217 -2.09571,-12.17298 -2.74454,-16.95236 -2.38116,-17.54024 0.23608,-0.38275 4.38136,-2.72752 9.21168,-5.21224 7.39816,-3.80564 16.12137,-9.07199 20.37185,-12.29892 2.58571,-1.96291 7.48656,6.04961 12.99506,21.24608 l 3.7973,10.47572 -3.11118,3.53662 -3.11119,3.53673 -35.84286,0.082 -35.84286,0.082 -0.8768,-2.66733 c -1.26744,-3.85564 -3.15369,-17.14913 -3.76824,-26.55693 -0.78102,-11.95606 -0.90741,-12.16084 -8.2089,-13.29601 -10.04908,-1.56229 -23.61741,-6.46989 -37.85005,-13.69037 l -13.44471,-6.82075 -4.3687,5.04751 c -6.90908,7.98257 -13.24364,16.15514 -16.31695,21.05145 -2.72162,4.33609 -11.19543,23.65477 -14.30983,32.62361 -1.04364,3.00571 -1.93437,4.30882 -2.945,4.30882 -0.79686,0 -1.4488,-0.1902 -1.4488,-0.42232 z m 115.41442,-3.31573 c 3.4081,-0.65246 7.48748,-1.18575 9.06529,-1.18575 1.57778,0 2.72903,-0.27695 2.5583,-0.61491 -1.1306,-2.24194 -5.47666,-11.65398 -6.18114,-13.38619 -0.70418,-1.73115 -1.84557,-2.3391 -6.48301,-3.45244 -7.42558,-1.78277 -12.60455,-2.57676 -12.60455,-1.93231 0,1.64902 2.65022,17.82977 3.34504,20.42279 0.73715,2.75121 1.00621,2.9926 2.46547,2.21153 0.90095,-0.48224 4.42647,-1.41007 7.8346,-2.06215 z m 61.39756,-1.94756 c 1.62407,-1.79464 1.64496,-1.68635 -2.62155,-13.6007 -1.61645,-4.51407 -4.16221,-10.14311 -5.65726,-12.50894 l -2.71829,-4.30181 -5.55456,3.57828 c -3.055,1.96791 -7.15997,4.39119 -9.12215,5.38483 -1.96217,0.99391 -3.32865,2.04562 -3.03661,2.33767 1.2509,1.25092 26.34677,20.58013 26.78983,20.6339 0.2686,0.0334 1.13285,-0.65241 1.92059,-1.52323 z m -54.88261,-35.7389 c 3.12265,-1.31403 3.17569,-1.40106 1.58903,-2.60642 -0.90283,-0.6853 -6.78954,-3.83854 -13.08164,-7.00592 -10.68571,-5.37899 -11.51116,-5.66179 -12.51599,-4.28761 -1.58938,2.17355 -1.30669,8.15674 0.55809,11.81196 1.44482,2.83216 2.03831,3.245 5.1295,3.56813 6.122,0.63954 14.98389,-0.0705 18.32102,-1.48014 z m -27.75893,-7.61298 c -0.0409,-4.84153 1.97716,-10.23439 4.66636,-12.46623 2.79088,-2.31611 1.44553,-3.10886 -6.3006,-3.71236 -20.00357,-1.55841 -31.53051,-5.1314 -45.6563,-14.15163 -2.4283,-1.55069 -4.71259,-2.51642 -5.0762,-2.14609 -0.36365,0.37085 -0.91586,3.84707 -1.22717,7.72584 l -0.56606,7.05251 2.47839,1.76485 c 3.82577,2.7241 24.4952,12.8062 31.37597,15.30439 3.38548,1.22918 9.29465,2.90929 13.13153,3.73364 3.83686,0.82372 7.02975,1.52474 7.09532,1.55654 0.0657,0.0334 0.10094,-2.06596 0.0786,-4.66146 z m 46.79942,-2.34051 c 5.74917,-2.52847 14.0358,-6.45749 18.41475,-8.73085 8.6813,-4.50716 9.52924,-5.67633 8.41691,-11.60557 -0.76652,-4.08597 -2.13475,-5.01718 -5.11067,-3.47822 -7.3011,3.77548 -23.78095,8.45066 -32.73663,9.28692 -2.89168,0.26979 -5.4365,0.78035 -5.65511,1.1347 -0.21859,0.35321 0.52663,2.00495 1.65615,3.66932 2.33317,3.43814 3.70725,7.75011 3.71395,11.65448 0.003,1.46698 0.19434,2.66732 0.4261,2.66732 0.23176,0 5.12536,-2.06886 10.87454,-4.59749 z m -4.73031,-18.30144 c 7.2752,-1.47571 16.55128,-4.22339 22.77499,-6.74638 2.25153,-0.91291 2.66734,-1.50317 2.66734,-3.78783 0,-2.59535 -3.48648,-57.46054 -4.73365,-74.49152 l -0.60103,-8.20727 -6.56576,0.14776 c -3.61116,0.082 -8.8308,0.38277 -11.59916,0.67124 l -5.03341,0.52333 -0.48639,3.02273 c -0.78009,4.84769 -4.69018,8.87899 -9.6422,9.94091 -7.13858,1.53099 -13.14103,-1.1124 -16.23919,-7.15133 -1.49578,-2.91546 -1.52597,-2.9291 -2.12777,-0.95161 -1.49825,4.92239 -6.78714,8.16185 -13.32179,8.15975 -7.68972,-0.003 -12.13853,-4.14337 -13.09093,-12.18485 l -0.49002,-4.13737 -4.19983,-0.49988 c -11.36593,-1.3531 -18.75342,-1.68787 -19.05444,-0.86367 -0.45856,1.25584 -8.57932,82.7541 -8.27612,83.05721 0.14071,0.14062 3.33071,2.0847 7.08894,4.32006 8.9743,5.33781 20.06655,8.86832 32.45616,10.3304 13.59999,1.60488 39.83969,1.00681 50.4743,-1.14996 z m -36.93241,-42.83945 c -4.97733,-0.97273 -9.71307,-4.47051 -12.11269,-8.94711 -3.78151,-7.05465 -1.17418,-16.33609 5.94483,-21.16213 2.69852,-1.82939 4.24542,-2.42737 4.81245,-1.86038 0.45964,0.45998 0.67553,0.94933 0.48005,1.08894 -0.19563,0.13823 -1.95427,1.27765 -3.90814,2.53005 -6.1852,3.96476 -8.4002,12.04567 -5.08365,18.54657 3.98348,7.80822 14.91034,10.35146 25.10302,5.84283 5.2511,-2.3228 7.07848,-5.67514 6.74667,-12.37671 -0.29428,-5.94412 -1.48509,-8.1046 -6.57843,-11.93586 -3.29548,-2.47885 -3.8828,-3.65321 -1.827,-3.65321 2.20691,0 9.31853,7.3609 10.20906,10.56692 1.29056,4.64605 0.98849,9.11685 -0.87642,12.96907 -2.13215,4.40434 -4.94681,6.44809 -11.08105,8.04582 -5.26814,1.37223 -6.40387,1.4054 -11.82868,0.34511 z m 72.28652,-32.68496 c 2.29421,-2.29414 2.39903,-2.71999 2.39903,-9.74537 0,-7.58213 -1.34778,-13.16832 -3.84206,-15.92445 -2.09373,-2.31353 -6.12631,-1.88816 -8.82744,0.9317 l -2.30722,2.4082 0.597,11.1465 c 0.53867,10.05707 0.767,11.2656 2.3363,12.36475 2.89784,2.02963 6.92722,1.53634 9.64439,-1.18085 z m -7.00778,-3.63185 c -0.87158,-0.63716 -1.25515,-1.52429 -0.90451,-2.09162 0.45012,-0.72871 0.89578,-0.74631 1.7096,-0.0705 0.84283,0.69936 1.30649,0.5292 1.97872,-0.72639 1.10109,-2.05748 1.0976,-3.10557 -0.0277,-8.3529 -0.65691,-3.06309 -1.15289,-3.976 -1.80558,-3.32336 -1.45088,1.45093 -2.34709,1.03966 -2.06493,-0.94694 0.16936,-1.19257 0.92228,-1.94026 2.12597,-2.11115 1.4776,-0.21022 2.12371,0.35797 3.1186,2.73892 1.89197,4.52813 1.88596,12.20245 -0.0109,14.29878 -1.80706,1.9967 -2.12779,2.04246 -4.11888,0.58672 z m -119.21472,2.46478 c 1.45253,-0.60665 3.0712,-1.62271 3.59703,-2.25695 0.5258,-0.63363 1.40779,-5.66427 1.95994,-11.17795 0.90201,-9.00731 0.86634,-10.23487 -0.35087,-12.09262 -2.98515,-4.55583 -9.79329,-3.1103 -12.76258,2.71002 -2.30191,4.51217 -3.61002,13.34431 -2.54556,17.18766 1.01664,3.6708 1.57926,4.54196 3.71512,5.75316 2.15613,1.2226 3.21605,1.20221 6.38694,-0.12303 z m -4.71118,-5.74557 c -1.28461,-0.93871 -1.44498,-1.89037 -1.07262,-6.36054 0.24081,-2.89083 0.91328,-6.28055 1.4943,-7.5327 1.35496,-2.91995 4.70965,-3.88052 6.24052,-1.78701 1.42976,1.95543 0.0762,3.54563 -1.73735,2.0407 -1.08202,-0.89766 -1.44453,-0.62305 -2.49696,1.89618 -0.67718,1.62061 -1.23116,4.47579 -1.23116,6.3447 0,3.21492 0.11035,3.37055 2.05181,2.88334 2.53179,-0.636 2.88544,1.47453 0.46432,2.77019 -1.98756,1.0643 -1.90149,1.07017 -3.71286,-0.25453 z m 57.95707,-0.22643 c 4.75515,-2.38885 6.97892,-16.53309 3.5264,-22.42944 -2.45378,-4.19075 -5.47964,-6.05919 -9.81243,-6.05919 -4.66842,0 -7.55709,1.96992 -10.05383,6.85608 -3.20808,6.27831 -2.24164,17.93216 1.76251,21.25299 2.97412,2.46651 10.05607,2.65098 14.57735,0.38038 z m 28.57448,-0.70169 c 3.03853,-2.91105 4.49944,-8.78485 3.72555,-14.97889 -0.72906,-5.83547 -1.49178,-7.8339 -3.81626,-9.99948 -6.22971,-5.80388 -16.24526,-2.099 -18.7777,6.94597 -1.3958,4.98521 -0.71168,12.949 1.35455,15.76723 4.0799,5.56483 12.88149,6.70331 17.51386,2.26517 z m 22.38473,-12.42553 c 4.00945,-0.34129 6.36058,-0.89651 6.36058,-1.50364 0,-0.52919 -0.71465,-12.57373 -1.58812,-26.76534 -0.87348,-14.19166 -1.70445,-28.5586 -1.84662,-31.92644 l -0.25851,-6.12328 8.80166,-0.0334 c 8.41378,-0.0239 8.89793,-0.12781 10.98646,-2.2144 1.6578,-1.65593 2.18481,-2.99632 2.18481,-5.55673 0,-5.71131 -4.66064,-9.08572 -12.54904,-9.08572 -4.55403,0 -8.13897,1.4657 -11.77179,4.81279 -2.29304,2.11278 -2.3698,2.12522 -3.28289,0.53278 -0.51431,-0.89652 -2.27648,-3.02063 -3.91611,-4.71909 -2.61266,-2.70661 -3.45624,-3.08821 -6.82488,-3.08821 -4.51467,0 -6.38498,0.83782 -10.37816,4.65196 l -2.94905,2.81633 -2.28864,-3.00057 c -5.23252,-6.86007 -14.50097,-6.87513 -20.88671,-0.0334 -1.09432,1.17223 -2.2645,2.13165 -2.60038,2.13165 -0.33595,0 -1.38533,-1.25334 -2.33204,-2.78515 -4.66963,-7.55558 -15.9485,-7.05155 -20.98238,0.9376 -0.90283,1.43285 -2.04374,2.61942 -2.53546,2.63677 -0.49167,0.01 -2.10419,-1.29825 -3.58327,-2.92368 -5.75744,-6.32702 -14.38426,-7.80707 -22.24077,-3.81566 -2.7691,1.40673 -5.01549,3.25896 -5.96338,4.91681 -1.47705,2.58339 -1.47745,2.74835 -0.0143,5.73862 2.12593,4.34189 4.26111,5.11729 14.12914,5.1314 l 8.51813,0.01 -0.5,3.89845 c -0.27493,2.1441 -1.83693,16.59525 -3.47101,32.11382 -2.31515,21.98639 -2.74763,28.3535 -1.95902,28.84093 0.55666,0.34368 4.56391,0.87187 8.90513,1.17227 4.34121,0.30029 9.04167,0.74159 10.44545,0.97977 2.46616,0.41756 2.58604,0.29936 3.5498,-3.53538 1.92707,-7.66668 6.74941,-11.765 13.84339,-11.765 5.13081,0 9.02092,2.47509 11.24184,7.15275 1.84114,3.87767 2.52388,4.26667 3.2843,1.87076 0.77363,-2.43733 4.38273,-6.4521 7.03173,-7.82193 4.9133,-2.54068 11.89752,-0.93989 15.72007,3.60263 1.5453,1.83655 2.3091,3.90848 2.68849,7.29285 0.81378,7.2599 0.62592,7.05535 5.96514,6.49117 2.58767,-0.2736 7.5671,-0.74044 11.06542,-1.03846 z m -123.8709,163.70525 c 0.26497,-1.06078 1.28029,-5.62108 2.25629,-10.13516 1.83361,-8.48045 2.66224,-10.35536 3.97189,-8.98676 0.45083,0.47047 -0.14891,4.67819 -1.5149,10.62831 -1.77199,7.71816 -2.57841,9.91049 -3.72806,10.13495 -1.17226,0.2288 -1.37019,-0.10584 -0.98522,-1.64134 z m 158.9567,0.9446 c 0,-0.45188 0.36936,-0.82024 0.82072,-0.82024 0.4514,0 0.82071,0.36845 0.82071,0.82024 0,0.45188 -0.36933,0.8202 -0.82071,0.8202 -0.45141,0 -0.82072,-0.36846 -0.82072,-0.8202 z"
     id="path4529"
     inkscape:connector-curvature="0"
     inkscape:export-xdpi="96.236923"
     inkscape:export-ydpi="96.236923" />
</svg>
